                                                                        S      1
,,,13HDR-30-6,35x10,22HAutodesk Inventor 2016,7Hunknown,32,38,7,99,15,, G      1
1.,2,2HMM,1,0.08,15H20170606.163823,0.01,10000.,2Ht1,31HПроектнаG      2
я группа,11,0,15H20170131.062106;                                G      3
     186       1                                                00000000D      1
     186             -83       1       0                               0D      2
     514       2                                                00010000D      3
     514                       1       1                               0D      4
     510       3                                                00010000D      5
     510             -83       1       1                               0D      6
     510       4                                                00010000D      7
     510             -83       1       1                               0D      8
     510       5                                                00010000D      9
     510             -83       1       1                               0D     10
     510       6                                                00010000D     11
     510             -83       1       1                               0D     12
     510       7                                                00010000D     13
     510             -83       1       1                               0D     14
     510       8                                                00010000D     15
     510             -83       1       1                               0D     16
     508       9                                                00010000D     17
     508                       1       1                               0D     18
     508      10                                                00010000D     19
     508                       1       1                               0D     20
     508      11                                                00010000D     21
     508                       2       1                               0D     22
     508      13                                                00010000D     23
     508                       1       1                               0D     24
     508      14                                                00010000D     25
     508                       1       1                               0D     26
     508      15                                                00010000D     27
     508                       2       1                               0D     28
     508      17                                                00010000D     29
     508                       1       1                               0D     30
     508      18                                                00010000D     31
     508                       1       1                               0D     32
     508      19                                                00010000D     33
     508                       2       1                               0D     34
     126      21                                                00010000D     35
     126       0               6       0                               0D     36
     126      27                                                00010000D     37
     126       0               7       0                               0D     38
     126      34                                                00010000D     39
     126       0               6       0                               0D     40
     126      40                                                00010000D     41
     126       0               7       0                               0D     42
     126      47                                                00010000D     43
     126       0               2       0                               0D     44
     126      49                                                00010000D     45
     126       0               6       0                               0D     46
     126      55                                                00010000D     47
     126       0               7       0                               0D     48
     126      62                                                00010000D     49
     126       0               6       0                               0D     50
     126      68                                                00010000D     51
     126       0               7       0                               0D     52
     126      75                                                00010000D     53
     126       0               3       0                               0D     54
     126      78                                                00010000D     55
     126       0               7       0                               0D     56
     126      85                                                00010000D     57
     126       0               8       0                               0D     58
     126      93                                                00010000D     59
     126       0               6       0                               0D     60
     126      99                                                00010000D     61
     126       0               7       0                               0D     62
     126     106                                                00010000D     63
     126       0               2       0                               0D     64
     128     108                                                00010000D     65
     128       0     -83       3       0                               0D     66
     128     111                                                00010000D     67
     128       0     -83      11       0                               0D     68
     128     122                                                00010000D     69
     128       0     -83       3       0                               0D     70
     128     125                                                00010000D     71
     128       0     -83      14       0                               0D     72
     128     139                                                00010000D     73
     128       0     -83       4       0                               0D     74
     128     143                                                00010000D     75
     128       0     -83      12       0                               0D     76
     502     155                                                00010000D     77
     502                       3       1                               0D     78
     504     158                                                00010001D     79
     504                       4       1                               0D     80
     406     162                                                00000000D     81
     406                       1      15                               0D     82
     314     163                                                00000200D     83
     314                       1       0                               0D     84
186,3,1,0,0,1,81;                                                      1P      1
514,6,5,1,7,1,9,1,11,1,13,1,15,1;                                      3P      2
510,65,2,1,17,19;                                                      5P      3
510,67,1,1,21;                                                         7P      4
510,69,2,1,23,25;                                                      9P      5
510,71,1,1,27;                                                        11P      6
510,73,2,1,29,31;                                                     13P      7
510,75,1,1,33;                                                        15P      8
508,2,0,79,1,1,0,0,79,2,1,0;                                          17P      9
508,2,0,79,3,0,0,0,79,4,0,0;                                          19P     10
508,6,0,79,3,1,0,0,79,5,1,0,0,79,6,0,0,0,79,7,0,0,0,79,5,0,0,0,       21P     11
79,4,1,0;                                                             21P     12
508,2,0,79,6,1,0,0,79,7,1,0;                                          23P     13
508,2,0,79,8,0,0,0,79,9,0,0;                                          25P     14
508,6,0,79,8,1,0,0,79,10,1,0,0,79,11,0,0,0,79,12,0,0,0,79,10,0,       27P     15
0,0,79,9,1,0;                                                         27P     16
508,2,0,79,13,0,0,0,79,14,0,0;                                        29P     17
508,2,0,79,11,1,0,0,79,12,1,0;                                        31P     18
508,6,0,79,1,0,0,0,79,2,0,0,0,79,15,1,0,0,79,14,1,0,0,79,13,1,0,      33P     19
0,79,15,0,0;                                                          33P     20
126,4,2,0,0,0,0,1.5707963267949,1.5707963267949,1.5707963267949,      35P     21
3.14159265358979,3.14159265358979,4.71238898038469,                   35P     22
4.71238898038469,4.71238898038469,1.,0.707106781186548,1.,            35P     23
0.707106781186548,1.,15.,15.,-9.18485099360515D-16,15.,15.,15.,       35P     24
15.,1.83697019872103D-15,15.,15.,-15.,15.,15.,-15.,                   35P     25
2.75545529808154D-15,1.5707963267949,4.71238898038469,0.,0.,0.;       35P     26
126,4,2,0,0,0,0,4.71238898038469,4.71238898038469,                    37P     27
4.71238898038469,6.28318530717959,6.28318530717959,                   37P     28
7.85398163397448,7.85398163397448,7.85398163397448,1.,                37P     29
0.707106781186548,1.,0.707106781186548,1.,15.,-15.,                   37P     30
2.75545529808154D-15,15.,-15.,-15.,15.,-3.67394039744206D-15,         37P     31
-15.,15.,15.,-15.,15.,15.,-4.59242549680258D-15,                      37P     32
4.71238898038469,7.85398163397448,0.,0.,0.;                           37P     33
126,4,2,0,0,0,0,1.5707963267949,1.5707963267949,1.5707963267949,      39P     34
3.14159265358979,3.14159265358979,4.71238898038469,                   39P     35
4.71238898038469,4.71238898038469,1.,0.707106781186548,1.,            39P     36
0.707106781186548,1.,15.,5.,-3.06161699786838D-16,15.,5.,5.,15.,      39P     37
6.12323399573677D-16,5.,15.,-5.,5.,15.,-5.,9.18485099360515D-16,      39P     38
1.5707963267949,4.71238898038469,0.,0.,0.;                            39P     39
126,4,2,0,0,0,0,4.71238898038469,4.71238898038469,                    41P     40
4.71238898038469,6.28318530717959,6.28318530717959,                   41P     41
7.85398163397448,7.85398163397448,7.85398163397448,1.,                41P     42
0.707106781186547,1.,0.707106781186547,1.,15.,-5.,                    41P     43
9.18485099360515D-16,15.,-5.,-5.,15.,-1.22464679914735D-15,-5.,       41P     44
15.,5.,-5.,15.,5.,-1.53080849893419D-15,4.71238898038469,             41P     45
7.85398163397448,0.,0.,0.;                                            41P     46
126,1,1,0,0,1,0,-2.6,-2.6,0.4,0.4,1.,1.,15.,-5.,0.,0.,-5.,0.,         43P     47
-2.6,0.4,0.,0.,0.;                                                    43P     48
126,4,2,0,0,0,0,1.5707963267949,1.5707963267949,1.5707963267949,      45P     49
3.14159265358979,3.14159265358979,4.71238898038469,                   45P     50
4.71238898038469,4.71238898038469,1.,0.707106781186548,1.,            45P     51
0.707106781186548,1.,0.,5.,-3.06161699786838D-16,0.,5.,5.,0.,         45P     52
6.12323399573677D-16,5.,0.,-5.,5.,0.,-5.,9.18485099360515D-16,        45P     53
1.5707963267949,4.71238898038469,0.,0.,0.;                            45P     54
126,4,2,0,0,0,0,4.71238898038469,4.71238898038469,                    47P     55
4.71238898038469,6.28318530717959,6.28318530717959,                   47P     56
7.85398163397448,7.85398163397448,7.85398163397448,1.,                47P     57
0.707106781186547,1.,0.707106781186547,1.,0.,-5.,                     47P     58
9.18485099360515D-16,0.,-5.,-5.,0.,-1.22464679914735D-15,-5.,0.,      47P     59
5.,-5.,0.,5.,-1.53080849893419D-15,4.71238898038469,                  47P     60
7.85398163397448,0.,0.,0.;                                            47P     61
126,4,2,0,0,0,0,1.5707963267949,1.5707963267949,1.5707963267949,      49P     62
3.14159265358979,3.14159265358979,4.71238898038469,                   49P     63
4.71238898038469,4.71238898038469,1.,0.707106781186548,1.,            49P     64
0.707106781186548,1.,0.,3.175,-1.94412679364642D-16,0.,3.175,         49P     65
3.175,0.,3.88825358729285D-16,3.175,0.,-3.175,3.175,0.,-3.175,        49P     66
5.83238038093927D-16,1.5707963267949,4.71238898038469,0.,0.,0.;       49P     67
126,4,2,0,0,0,0,4.71238898038469,4.71238898038469,                    51P     68
4.71238898038469,6.28318530717959,6.28318530717959,                   51P     69
7.85398163397448,7.85398163397448,7.85398163397448,1.,                51P     70
0.707106781186548,1.,0.707106781186548,1.,0.,-3.175,                  51P     71
5.83238038093927D-16,0.,-3.175,-3.175,0.,-7.77650717458569D-16,       51P     72
-3.175,0.,3.175,-3.175,0.,3.175,-9.72063396823212D-16,                51P     73
4.71238898038469,7.85398163397448,0.,0.,0.;                           51P     74
126,1,1,0,0,1,0,-2.99212598425197,-2.99212598425197,                  53P     75
1.73228346456693,1.73228346456693,1.,1.,0.,-3.175,0.,-15.,            53P     76
-3.175,0.,-2.99212598425197,1.73228346456693,0.,0.,0.;                53P     77
126,4,2,0,0,0,0,1.5707963267949,1.5707963267949,1.5707963267949,      55P     78
3.14159265358979,3.14159265358979,4.71238898038469,                   55P     79
4.71238898038469,4.71238898038469,1.,0.707106781186548,1.,            55P     80
0.707106781186548,1.,-15.,3.175,-1.94412679364642D-16,-15.,           55P     81
3.175,3.175,-15.,3.88825358729285D-16,3.175,-15.,-3.175,3.175,        55P     82
-15.,-3.175,5.83238038093927D-16,1.5707963267949,                     55P     83
4.71238898038469,0.,0.,0.;                                            55P     84
126,4,2,0,0,0,0,4.71238898038469,4.71238898038469,                    57P     85
4.71238898038469,6.28318530717959,6.28318530717959,                   57P     86
7.85398163397448,7.85398163397448,7.85398163397448,1.,                57P     87
0.707106781186548,1.,0.707106781186548,1.,-15.,-3.175,                57P     88
5.83238038093927D-16,-15.,-3.175,-3.175,-15.,                         57P     89
-7.77650717458569D-16,-3.175,-15.,3.175,-3.175,-15.,3.175,            57P     90
-9.72063396823212D-16,4.71238898038469,7.85398163397448,0.,0.,        57P     91
0.;                                                                   57P     92
126,4,2,0,0,0,0,1.5707963267949,1.5707963267949,1.5707963267949,      59P     93
3.14159265358979,3.14159265358979,4.71238898038469,                   59P     94
4.71238898038469,4.71238898038469,1.,0.707106781186547,1.,            59P     95
0.707106781186548,1.,-15.,15.,-9.18485099360515D-16,-15.,15.,         59P     96
15.,-15.,1.83697019872103D-15,15.,-15.,-15.,15.,-15.,-15.,            59P     97
2.75545529808154D-15,1.5707963267949,4.71238898038469,0.,0.,0.;       59P     98
126,4,2,0,0,0,0,4.71238898038469,4.71238898038469,                    61P     99
4.71238898038469,6.28318530717959,6.28318530717959,                   61P    100
7.85398163397448,7.85398163397448,7.85398163397448,1.,                61P    101
0.707106781186548,1.,0.707106781186548,1.,-15.,-15.,                  61P    102
2.75545529808154D-15,-15.,-15.,-15.,-15.,-3.67394039744206D-15,       61P    103
-15.,-15.,15.,-15.,-15.,15.,-4.59242549680257D-15,                    61P    104
4.71238898038469,7.85398163397448,0.,0.,0.;                           61P    105
126,1,1,0,0,1,0,-0.1,-0.1,1.9,1.9,1.,1.,15.,-15.,0.,-15.,-15.,        63P    106
0.,-0.1,1.9,0.,0.,0.;                                                 63P    107
128,1,1,1,1,0,0,1,0,0,-1.5,-1.5,1.5,1.5,-2.,-2.,1.,1.,1.,1.,1.,       65P    108
1.,15.,-15.,15.,15.,-15.,-15.,15.,15.,15.,15.,15.,-15.,-1.5,1.5,      65P    109
-2.,1.;                                                               65P    110
128,1,8,1,2,0,1,0,0,1,-0.4,-0.4,2.6,2.6,-3.14159265358979,            67P    111
-3.14159265358979,-3.14159265358979,-1.5707963267949,                 67P    112
-1.5707963267949,0.,0.,1.5707963267949,1.5707963267949,               67P    113
3.14159265358979,3.14159265358979,3.14159265358979,1.,1.,             67P    114
0.707106781186548,0.707106781186548,1.,1.,0.707106781186548,          67P    115
0.707106781186548,1.,1.,0.707106781186548,0.707106781186548,1.,       67P    116
1.,0.707106781186548,0.707106781186548,1.,1.,0.,-5.,0.,15.,-5.,       67P    117
0.,0.,-5.,-5.,15.,-5.,-5.,0.,0.,-5.,15.,0.,-5.,0.,5.,-5.,15.,5.,      67P    118
-5.,0.,5.,0.,15.,5.,0.,0.,5.,5.,15.,5.,5.,0.,0.,5.,15.,0.,5.,0.,      67P    119
-5.,5.,15.,-5.,5.,0.,-5.,0.,15.,-5.,0.,-0.4,2.6,                      67P    120
-3.14159265358979,3.14159265358979;                                   67P    121
128,1,1,1,1,0,0,1,0,0,-0.5,-0.5,0.5,0.5,-0.8175,-0.8175,0.1825,       69P    122
0.1825,1.,1.,1.,1.,0.,-5.,5.,0.,-5.,-5.,0.,5.,5.,0.,5.,-5.,-0.5,      69P    123
0.5,-0.8175,0.1825;                                                   69P    124
128,1,8,1,2,0,1,0,0,1,-1.73228346456693,-1.73228346456693,            71P    125
2.99212598425197,2.99212598425197,-3.14159265358979,                  71P    126
-3.14159265358979,-3.14159265358979,-1.5707963267949,                 71P    127
-1.5707963267949,0.,0.,1.5707963267949,1.5707963267949,               71P    128
3.14159265358979,3.14159265358979,3.14159265358979,1.,1.,             71P    129
0.707106781186548,0.707106781186548,1.,1.,0.707106781186548,          71P    130
0.707106781186548,1.,1.,0.707106781186548,0.707106781186548,1.,       71P    131
1.,0.707106781186548,0.707106781186548,1.,1.,-15.,-3.175,0.,0.,       71P    132
-3.175,0.,-15.,-3.175,-3.175,0.,-3.175,-3.175,-15.,0.,-3.175,0.,      71P    133
0.,-3.175,-15.,3.175,-3.175,0.,3.175,-3.175,-15.,3.175,0.,0.,         71P    134
3.175,0.,-15.,3.175,3.175,0.,3.175,3.175,-15.,0.,3.175,0.,0.,         71P    135
3.175,-15.,-3.175,3.175,0.,-3.175,3.175,-15.,-3.175,0.,0.,            71P    136
-3.175,0.,-1.73228346456693,2.99212598425197,-3.14159265358979,       71P    137
3.14159265358979;                                                     71P    138
128,1,1,1,1,0,0,1,0,0,-1.5,-1.5,1.5,1.5,-3.,-3.,                      73P    139
2.46090488596554D-16,2.46090488596554D-16,1.,1.,1.,1.,-15.,-15.,      73P    140
-15.,-15.,-15.,15.,-15.,15.,-15.,-15.,15.,15.,-1.5,1.5,-3.,           73P    141
2.46090488596554D-16;                                                 73P    142
128,1,8,1,2,0,1,0,0,1,-1.9,-1.9,0.1,0.1,-3.14159265358979,            75P    143
-3.14159265358979,-3.14159265358979,-1.5707963267949,                 75P    144
-1.5707963267949,0.,0.,1.5707963267949,1.5707963267949,               75P    145
3.14159265358979,3.14159265358979,3.14159265358979,1.,1.,             75P    146
0.707106781186548,0.707106781186548,1.,1.,0.707106781186548,          75P    147
0.707106781186548,1.,1.,0.707106781186548,0.707106781186548,1.,       75P    148
1.,0.707106781186548,0.707106781186548,1.,1.,15.,-15.,0.,-15.,        75P    149
-15.,0.,15.,-15.,-15.,-15.,-15.,-15.,15.,0.,-15.,-15.,0.,-15.,        75P    150
15.,15.,-15.,-15.,15.,-15.,15.,15.,0.,-15.,15.,0.,15.,15.,15.,        75P    151
-15.,15.,15.,15.,0.,15.,-15.,0.,15.,15.,-15.,15.,-15.,-15.,15.,       75P    152
15.,-15.,0.,-15.,-15.,0.,-1.9,0.1,-3.14159265358979,                  75P    153
3.14159265358979;                                                     75P    154
502,12,15.,15.,0.,15.,-15.,0.,15.,5.,0.,15.,-5.,0.,0.,-5.,0.,0.,      77P    155
5.,0.,0.,3.175,0.,0.,-3.175,0.,-15.,-3.175,0.,-15.,3.175,0.,          77P    156
-15.,15.,0.,-15.,-15.,0.;                                             77P    157
504,15,35,77,1,77,2,37,77,2,77,1,39,77,3,77,4,41,77,4,77,3,43,        79P    158
77,4,77,5,45,77,6,77,5,47,77,5,77,6,49,77,7,77,8,51,77,8,77,7,        79P    159
53,77,8,77,9,55,77,10,77,9,57,77,9,77,10,59,77,11,77,12,61,77,        79P    160
12,77,11,63,77,2,77,12;                                               79P    161
406,1,24HТвердое тело5;                                    81P    162
314,74.9019607843137,74.9019607843137,74.9019607843137,;              83P    163
S      1G      3D     84P    163                                        T      1
